# xmcd
#
# Track frame offsets:
#	150
#	27604
#	53460
#	86157
#	109105
#	143734
#	160227
#	209582
#	220812
#	243610
#	274613
#
# Disc length: 3932 seconds
# Revision: 4
# Processed by: cddbd v1.5.2PL0 Copyright (c) Steve Scherf et al.
# Submitted via: dBpowerAMP V12.0
#
DISCID=a00f5a0b
DTITLE=Joe Bonamassa - Live At The Greek Theatre
DYEAR=2016
DGENRE=Blues
TTITLE0=Oh, Pretty Woman
TTITLE1=Let The Good Times Roll
TTITLE2=Never Make Your Move Too Soon
TTITLE3=Ole Time Religion
TTITLE4=Nobody Loves Me But My Mother
TTITLE5=Boogie Woogie Woman
TTITLE6=Hummingbird
TTITLE7=Hide Away
TTITLE8=Born Under A Bad Sign
TTITLE9=The Thrill Is Gone
TTITLE10=Riding With the Kings (studio Track)
EXTD=
EXTT0=
EXTT1=
EXTT2=
EXTT3=
EXTT4=
EXTT5=
EXTT6=
EXTT7=
EXTT8=
EXTT9=
EXTT10=
PLAYORDER=
